<?xml version="1.0" encoding="UTF-8"?>
<svg id="Camada_2" data-name="Camada 2" xmlns="http://www.w3.org/2000/svg" viewBox="0 0 200.09 165.37">
  <defs>
    <style>
      .cls-1 {
        fill: #bcbcbc;
        stroke-width: 0px;
      }
    </style>
  </defs>
  <g id="Camada_2-2" data-name="Camada 2">
    <g id="Camada_1-2" data-name="Camada 1-2">
      <path class="cls-1" d="M200.04,38.98c0-1.55.1-3.1-.23-4.65-.93-4.34-3.11-7.83-6.95-10.13-7.02-4.18-14.07-8.3-21.1-12.45-5.25-3.1-10.5-6.2-15.74-9.31-2.18-1.29-4.53-2.06-7.02-2.44h-2.4c-2.33.48-4.62,1.04-6.71,2.27-2.47,1.46-4.99,2.83-7.49,4.24-9.64,5.45-19.27,10.92-28.92,16.36-4.02,2.26-6.76,5.5-7.84,10.04-.67,2.82-.42,5.72-.48,8.57-.19,8.66-.09,17.32-.1,25.99,0,.36,0,.72-.01,1.08-.31,4.41-.5,8.84.06,13.24.48,3.77,2.3,6.96,5.34,9.28,3.4,2.59,7.27,4.43,10.9,6.67,1.87,1.14,3.77,2.23,5.76,3.4.01.01.02.01.03.02-.01,0-.01.01-.02.02-3.66,2.42-7.15,4.71-10.61,7.03-.53.35-.93.21-1.41-.09-2.05-1.23-4.11-2.44-6.17-3.65-1.22-.72-2.4-.62-3.62.07-5.71,3.25-11.42,6.51-17.18,9.69-1.52.84-2.12,2.06-2.21,3.67-.03.56,0,1.13,0,1.85v.02h-.01c-6.63-3.79-13.03-7.45-19.62-11.21-.05-.03-.09-.05-.14-.08.05-.03.09-.05.14-.08,3.03-1.71,5.88-3.31,8.81-4.96-7.59-4.34-15.02-8.6-22.46-12.84-5.99-3.41-12.04-6.72-17.95-10.26-2-1.2-3.48-1.54-5.67-.23-5.74,3.43-11.69,6.51-17.57,9.72-.7.38-.79.64-.06,1.09,4.26,2.64,8.51,5.31,12.77,7.97,2.32,1.45,4.63,2.91,7.12,4.46.03.02.06.04.09.06-.03.02-.06.04-.09.05-7.15,4.2-14.13,8.3-21.28,12.49.9.49,1.53.83,2.15,1.18,6.13,3.41,12.26,6.81,18.38,10.24.72.4,1.31.36,2-.04,1.51-.89,3.07-1.71,4.6-2.56,8.96-5.04,17.94-10.05,26.87-15.13.95-.55,1.53-.47,2.44.05,6.12,3.58,12.29,7.08,18.46,10.57.75.43,1.04.92,1.03,1.79-.05,5.23-.02,10.47-.05,15.7,0,1.47.64,2.5,1.87,3.22,1.11.64,2.22,1.27,3.31,1.92,1.13.67,2.25,1.37,3.5,2.12,0,0,.02,0,.03.02-.01,0-.03.02-.04.02-5.64,3.15-11.09,6.19-16.53,9.24-.43.25-.7.13-1.07-.12-1.01-.69-2.21-1.06-3.38-.99-2.73.18-4.87,1.5-5.66,4.2-.68,2.31-.34,4.54,1.6,6.35,2.14,1.98,5.65,2.23,7.88.41,2.5-2.05,3.17-5.65,1.38-8.14-.62-.85-.25-.97.39-1.32,5.24-2.88,10.48-5.77,15.68-8.71.58-.33.95-.31,1.46,0,2.7,1.6,5.47,3.12,8.12,4.82,1.61,1.03,3.02,1.05,4.67.11,5.55-3.21,11.14-6.36,16.75-9.47,1.54-.85,2.25-2.03,2.24-3.75-.01-6.55-.03-13.1.05-19.65.02-1.68-.73-2.67-2.07-3.45-3.05-1.78-6.08-3.6-9.22-5.46,3.64-2.4,7.15-4.72,10.66-7.06.49-.32.86-.17,1.31.09,6.79,4.02,13.59,8.02,20.39,12.01,2.63,1.55,5.49,2.37,8.54,2.25,2.88-.11,5.49-1.19,7.98-2.6,11.85-6.73,23.69-13.48,35.57-20.14,5.61-3.14,8.36-7.9,8.49-14.22.18-9.25-.16-18.51.22-27.76.17-4.23.05-8.47.04-12.7h0ZM110,95.84c-2.87-1.71-5.88-3.22-8.57-5.22-3.62-2.69-5.43-6.41-5.61-10.86-.12-3.15-.12-6.32.01-9.46.42-9.5-.01-19,.28-28.49.09-2.69-.12-5.42.37-8.1.81-4.41,3.31-7.62,7.13-9.8,12.09-6.87,24.21-13.69,36.3-20.56,2.29-1.3,4.69-2.24,7.32-2.35,2.94-.12,5.65.73,8.18,2.23,10.37,6.1,20.76,12.16,31.1,18.32,3.1,1.85,6.48,3.29,8.96,6.08,2.24,2.51,3.45,5.43,3.59,8.76.11,2.55.02,5.11.02,7.66-.33,11.69-.2,23.39-.26,35.08-.02,3.94-1.07,7.55-3.78,10.54-1.53,1.68-3.51,2.73-5.45,3.83-10.81,6.13-21.63,12.27-32.46,18.37-2.08,1.17-4.1,2.5-6.45,3.09-3.99,1-7.72.32-11.24-1.76-9.81-5.79-19.65-11.54-29.44-17.36h0ZM23.2,103.44c-2.57-1.63-5.01-3.18-7.46-4.72-4.18-2.63-8.36-5.26-12.56-7.85-.79-.48-.4-.63.09-.9,3.84-2.11,7.68-4.23,11.52-6.35,1.85-1.02,3.74-1.97,5.53-3.08.95-.58,1.63-.68,2.67-.07,6.88,4.01,13.83,7.92,20.75,11.86,6.19,3.53,12.38,7.07,18.57,10.61.21.11.45.18.56.53-1.62,1.17-3.45,2.04-5.21,3.03-8.98,5.07-17.98,10.12-26.98,15.16-2.78,1.56-5.57,3.11-8.35,4.66-.46.26-.86.46-1.43.15-6.21-3.48-12.45-6.94-18.95-10.55,7.18-4.22,14.14-8.31,21.25-12.48ZM78.46,140.24c-1.08-.63-1.68-1.42-1.64-2.78.1-3.19.03-6.39.03-9.58h.03c0-3.27.02-6.54-.02-9.81-.01-1.39.54-2.32,1.75-3,5.73-3.22,11.44-6.47,17.16-9.71.94-.53,1.85-.55,2.82.02,5.82,3.45,11.65,6.88,17.49,10.31.73.43,1.06,1.04,1.06,1.87-.01,6.78-.02,13.56-.02,20.35,0,1.09-.47,1.93-1.41,2.46-5.79,3.28-11.59,6.52-17.37,9.81-1.13.64-2.07.57-3.21-.12-5.53-3.33-11.11-6.56-16.67-9.82h0ZM58.63,159.34c-.23-2.91,2.13-5.2,5.03-5.19,2.94,0,5.14,2.14,5.08,5.16-.05,2.99-2.05,4.93-4.99,5.1-2.62.14-5.46-2.36-5.12-5.07Z"/>
    </g>
  </g>
</svg>