<?xml version="1.0" encoding="UTF-8"?>
<svg id="Camada_2" data-name="Camada 2" xmlns="http://www.w3.org/2000/svg" viewBox="0 0 545.27 284.17">
  <defs>
    <style>
      .cls-1 {
        fill: none;
        stroke: #bcbcbc;
        stroke-linecap: round;
        stroke-linejoin: round;
        stroke-width: 2px;
      }
    </style>
  </defs>
  <g id="Camada_2-2" data-name="Camada 2">
    <g id="Camada_1-2" data-name="Camada 1-2">
      <g>
        <path class="cls-1" d="M334.92,81.8c-10.15-5.82-20.29-11.65-30.45-17.45-1.68-.96-4.23-.8-4.47-3.5-.25-2.84,2.67-3.04,4.06-3.84,15.67-9.04,31.53-17.77,47.34-26.58,4.75-2.64,9.13-2.36,14.02.41,36.35,20.61,72.82,40.99,109.26,61.43,5.91,3.31,6.19,5.67.47,8.94-22.9,13.08-45.9,25.98-68.85,38.95-13.81,7.81-27.76,15.4-41.35,23.57-4.51,2.71-8.17,2.88-12.58.41-13.25-7.42-26.66-14.57-39.88-22.04-4.28-2.42-9.16-4.01-12.88-7.79,2.1-3.72,5.84-4.78,8.88-6.56,15.06-8.78,30.24-17.36,45.39-25.99,2.07-1.18,4.37-2.05,4.5-5,.15-3.2-2.65-3.4-4.52-4.47-5.82-3.33-11.7-6.56-17.33-9.71-16.66,9.2-33.39,18.36-50.03,27.66-13.2,7.38-26.26,15.01-39.46,22.4-9.42,5.27-18.96,10.31-28.43,15.5-1.57.86-3.01,1.98-4.5,2.97"/>
        <path class="cls-1" d="M199.66,1c0,21.12-.05,42.23.02,63.35.03,9.15-3.8,15.5-11.95,20.04-30.07,16.74-59.88,33.94-89.96,50.66-4.23,2.35-8.42,5.11-13.4,6.16-6.1,1.29-11.35-.65-16.49-3.54-21.95-12.32-43.92-24.62-65.91-36.87-.52-.29-1.02-.33-.97-1.04"/>
        <path class="cls-1" d="M196.66,163.1c-11.98,6.82-23.96,13.64-35.94,20.45-6.55,3.72-13.1,7.44-19.85,11.27-4.94-2.78-10.23-5.84-15.59-8.76-4.71-2.56-9.54-1.9-13.94.54-14.72,8.17-29.26,16.66-43.98,24.84-5.48,3.04-7.36,7.83-7.41,13.52-.14,15.63-.19,31.26,0,46.88.12,9.57,7.77,14,16.39,9.42,13.09-6.94,26.05-14.13,38.91-21.48,2.85-1.63,4.75-1.65,7.59,0,12.69,7.35,25.75,14.08,38.31,21.65,7.14,4.31,17.06.51,17.05-10.09-.02-15.63.09-31.26-.05-46.89-.06-6.9-4.04-11.33-9.92-14.5-8.72-4.69-17.32-9.61-25.97-14.43"/>
        <path class="cls-1" d="M447.23,118.71c16.64,9.48,33.18,19.13,50,28.27,3.2,1.74,4.01,3.49,3.94,6.64-.13,5.82-.05,11.64-.03,17.46,0,1.65-.44,3.47,1.85,4.65,12.72-7.29,25.67-14.65,38.55-22.13,3.64-2.11,3.62-2.84,0-4.93-11.94-6.89-23.92-13.7-35.93-20.46-3.63-2.04-4.64-1.23-5.03,2.97-.5,5.5,1.5,10.98.05,16.46"/>
        <path class="cls-1" d="M215.63,162.11c7.05,5.51,15.31,8.97,22.99,13.41,15.54,8.99,31.2,17.77,46.9,26.46,15.24,8.43,30.6,16.65,45.91,24.97"/>
        <path class="cls-1" d="M134.27,115.72c20.96,11.8,41.93,23.61,62.89,35.41"/>
        <path class="cls-1" d="M436.25,33.92c.92-3.02,4.11-4.97,4.06-9-14.34,7.92-28.42,15.69-42.49,23.46"/>
        <path class="cls-1" d="M214.63,162.6c-1.16,1-2.2,2.22-3.52,2.95-5.45,3.04-9.95,1.47-13.44-2.47-2.09-2.36-2.03-9.27,0-11.96,2.84-3.78,8.34-5.1,12.48-2.99,4.33,2.21,6.8,7.44,5.41,11.94-.21.69-.31,1.34-.41,2.02"/>
        <path class="cls-1" d="M326.44,217.47c.38,3.04,4.05,4.93,2.99,8.48"/>
        <path class="cls-1" d="M328.43,226.95c-2.5,1.66-5.31.77-7.99,1"/>
        <path class="cls-1" d="M439.24,24.44c-2.66-.33-5.32-.67-7.99-1"/>
        <path class="cls-1" d="M118.3,192.03c-8.15,4.32-16.38,8.51-24.44,13.01-7.42,4.14-14.52,8.88-22.05,12.81-3.45,1.81-4.43,4.2-4.43,7.6,0,14.96-.06,29.93.04,44.89.04,5.53,2.31,6.66,6.96,4.01,13.78-7.86,27.64-15.59,41.4-23.5,3.29-1.89,5.87-.4,8.5,1.06,11.84,6.6,23.64,13.27,35.45,19.93,1.69.95,3.28,2.09,5,2.97,4.11,2.1,5.45,1.25,5.47-3.47.04-9.81,0-19.62,0-29.43,0-5.82-.09-11.64.04-17.46.06-2.64-.56-4.63-3.02-6.01-15.33-8.6-30.62-17.28-45.95-25.88-.7-.39-1.65-.36-2.48-.53"/>
      </g>
    </g>
  </g>
</svg>